<?xml version="1.0" standalone="no"?><!DOCTYPE svg PUBLIC "-//W3C//DTD SVG 1.1//EN" "http://www.w3.org/Graphics/SVG/1.1/DTD/svg11.dtd"><svg t="1543469403428" class="icon" style="" viewBox="0 0 1024 1024" version="1.1" xmlns="http://www.w3.org/2000/svg" p-id="14194" xmlns:xlink="http://www.w3.org/1999/xlink" width="200" height="200"><defs><style type="text/css"></style></defs><path d="M1022.161795 491.776749H837.082537l8.204987 21.14635h177.36679v-21.14635h-0.492519zM179.26194 719.617249h283.075559L317.881569 369.634029 179.26194 719.617249z m624.899746-305.36679h209.039859l-2.03701-9.314904-1.991056-8.822384-0.663352-2.998072H794.720905l9.452769 21.146349-0.011988-0.010989zM469.386615 719.617249h283.110525l-144.478908-349.98322L469.386615 719.617249z" fill="#A61F23" p-id="14195"></path><path d="M930.995824 712.59111L820.570661 873.478993h-603.730419L98.188113 725.521483 358.938474 52.492738l148.015454 352.385873L647.931255 49.002146 782.958392 364.94361h217.885222C937.3696 154.907723 742.393007 1.995052 511.690302 1.995052 229.530849 1.995052 0.774244 230.751657 0.774244 512.923099S229.51886 1023.840156 511.690302 1023.840156c220.700472 0 408.684894-139.925354 480.169085-335.908964h-71.426247l10.561685 24.659918z" fill="#A61F23" p-id="14196"></path><path d="M857.017069 541.106576l9.416804 21.169326h153.827778l2.346708-21.169326H857.017069z m30.518197 70.501151h125.667278l1.28075-7.724457 2.219832-13.388925H878.174408l9.383836 21.112383h-0.022978z m-63.405081-148.026443h196.131466l-0.193811-1.201826-1.144882-11.11115-0.961061-8.822384h-202.082654l8.238954 21.13536h0.011988z m75.179583 176.163965l9.383836 20.002466h92.82535l5.892246-20.002466H899.298779h0.010989z" fill="#A61F23" p-id="14197"></path></svg>